<?xml version="1.0" encoding="utf-8"?>
<!-- Generator: Adobe Illustrator 16.0.0, SVG Export Plug-In . SVG Version: 6.00 Build 0)  -->
<!DOCTYPE svg PUBLIC "-//W3C//DTD SVG 1.1//EN" "http://www.w3.org/Graphics/SVG/1.1/DTD/svg11.dtd">
<svg version="1.1" id="Layer_1" xmlns="http://www.w3.org/2000/svg" xmlns:xlink="http://www.w3.org/1999/xlink" x="0px" y="0px"
	 width="14.083px" height="14.209px" viewBox="0 0 14.083 14.209" enable-background="new 0 0 14.083 14.209" xml:space="preserve">
<g>
	<defs>
		<path id="SVGID_1_" d="M0.302,7.094c0,3.76,3.048,6.809,6.808,6.809c3.76,0,6.808-3.049,6.808-6.809S10.87,0.286,7.11,0.286
			C3.35,0.286,0.302,3.334,0.302,7.094"/>
	</defs>
	<clipPath id="SVGID_2_">
		<use xlink:href="#SVGID_1_"  overflow="visible"/>
	</clipPath>
	
		<linearGradient id="SVGID_3_" gradientUnits="userSpaceOnUse" x1="-591.4102" y1="339.2813" x2="-590.4102" y2="339.2813" gradientTransform="matrix(0 -13.7146 -13.7146 0 4660.2212 -8096.9722)">
		<stop  offset="0" style="stop-color:#F1F2F2"/>
		<stop  offset="1" style="stop-color:#FFFFFF"/>
	</linearGradient>
	<rect x="0.302" y="0.286" clip-path="url(#SVGID_2_)" fill="url(#SVGID_3_)" width="13.616" height="13.616"/>
</g>
<circle fill="none" stroke="#ADADAD" stroke-width="0.45" cx="7.109" cy="7.093" r="6.808"/>
<g>
	<defs>
		<path id="SVGID_4_" d="M5.47,9.18V7.717V6.546V5.081c0-0.23,0.136-0.361,0.315-0.361c0.075,0,0.155,0.024,0.236,0.07l1.294,0.728
			c0.278,0.164,0.734,0.426,1.011,0.59l1.247,0.726c0.279,0.164,0.271,0.428-0.006,0.59L8.313,8.152
			C8.037,8.314,7.57,8.582,7.291,8.744l-1.27,0.729C5.94,9.518,5.86,9.541,5.785,9.541C5.608,9.541,5.47,9.408,5.47,9.18
			 M4.633,5.081v1.465v1.171V9.18c0,0.684,0.496,1.199,1.152,1.199c0.224,0,0.453-0.064,0.661-0.186l1.262-0.728l0.511-0.29
			l0.519-0.3l1.25-0.728c0.395-0.23,0.629-0.613,0.629-1.023c-0.001-0.406-0.232-0.786-0.62-1.013l-1.25-0.725L8.243,5.09
			L7.736,4.795L6.432,4.061C6.238,3.948,6.009,3.884,5.785,3.884C5.129,3.884,4.633,4.398,4.633,5.081"/>
	</defs>
	<clipPath id="SVGID_5_">
		<use xlink:href="#SVGID_4_"  overflow="visible"/>
	</clipPath>
	
		<linearGradient id="SVGID_6_" gradientUnits="userSpaceOnUse" x1="-556.3794" y1="394.6934" x2="-555.3794" y2="394.6934" gradientTransform="matrix(0 6.5629 6.5629 0 -2582.7114 3655.3833)">
		<stop  offset="0" style="stop-color:#EBEBEC"/>
		<stop  offset="1" style="stop-color:#FFFFFF"/>
	</linearGradient>
	<rect x="4.633" y="3.884" clip-path="url(#SVGID_5_)" fill="url(#SVGID_6_)" width="5.983" height="6.495"/>
</g>
<g>
	<defs>
		<path id="SVGID_7_" d="M5.47,5.081v1.465v1.171V9.18c0,0.322,0.274,0.454,0.551,0.293l1.27-0.729
			c0.279-0.162,0.746-0.43,1.022-0.592l1.254-0.729c0.277-0.162,0.285-0.426,0.006-0.59L8.326,6.108
			c-0.277-0.164-0.733-0.426-1.011-0.59L6.021,4.79C5.94,4.742,5.86,4.72,5.786,4.72C5.608,4.72,5.47,4.852,5.47,5.081"/>
	</defs>
	<clipPath id="SVGID_8_">
		<use xlink:href="#SVGID_7_"  overflow="visible"/>
	</clipPath>
	
		<linearGradient id="SVGID_9_" gradientUnits="userSpaceOnUse" x1="-612.2378" y1="306.3418" x2="-611.2378" y2="306.3418" gradientTransform="matrix(0 -4.8387 -4.8387 0 1489.9552 -2953.3152)">
		<stop  offset="0" style="stop-color:#5BADE1"/>
		<stop  offset="0.102" style="stop-color:#5BADE1"/>
		<stop  offset="1" style="stop-color:#91D9FF"/>
	</linearGradient>
	<rect x="5.47" y="4.72" clip-path="url(#SVGID_8_)" fill="url(#SVGID_9_)" width="4.383" height="4.914"/>
</g>
</svg>
