<?xml version="1.0" encoding="utf-8"?>
<!-- Generator: Adobe Illustrator 16.0.0, SVG Export Plug-In . SVG Version: 6.00 Build 0)  -->
<!DOCTYPE svg PUBLIC "-//W3C//DTD SVG 1.1//EN" "http://www.w3.org/Graphics/SVG/1.1/DTD/svg11.dtd">
<svg version="1.1" xmlns="http://www.w3.org/2000/svg" xmlns:xlink="http://www.w3.org/1999/xlink" x="0px" y="0px"
	 width="14.083px" height="14.209px" viewBox="0 0 14.083 14.209" enable-background="new 0 0 14.083 14.209" xml:space="preserve">
<g id="Layer_1">
	<path fill="#A1A3A6" d="M7.032,0.146C3.155,0.146,0,3.301,0,7.177c0,3.877,3.155,7.032,7.032,7.032
		c3.877,0,7.033-3.155,7.033-7.032C14.064,3.301,10.909,0.146,7.032,0.146 M10.109,8.833c0.13,0.131,0.13,0.345,0,0.476
		l-0.946,0.945c-0.131,0.131-0.344,0.131-0.475,0L7.032,8.598l-1.656,1.656c-0.129,0.131-0.344,0.131-0.475,0L3.955,9.309
		c-0.131-0.131-0.131-0.345,0-0.476l1.657-1.656L3.955,5.521c-0.131-0.13-0.131-0.344,0-0.475L4.9,4.101
		c0.131-0.131,0.346-0.131,0.475,0l1.656,1.656l1.657-1.656c0.131-0.131,0.344-0.131,0.475,0l0.946,0.946
		c0.13,0.13,0.13,0.344,0,0.475L8.452,7.177L10.109,8.833z"/>
</g>
<g id="Isolation_Mode">
</g>
</svg>
