<?xml version="1.0" encoding="utf-8"?>
<!-- Generator: Adobe Illustrator 16.0.0, SVG Export Plug-In . SVG Version: 6.00 Build 0)  -->
<!DOCTYPE svg PUBLIC "-//W3C//DTD SVG 1.1//EN" "http://www.w3.org/Graphics/SVG/1.1/DTD/svg11.dtd">
<svg version="1.1" id="Layer_1" xmlns="http://www.w3.org/2000/svg" xmlns:xlink="http://www.w3.org/1999/xlink" x="0px" y="0px"
	 width="109.333px" height="28.75px" viewBox="0 0 109.333 28.75" enable-background="new 0 0 109.333 28.75" xml:space="preserve">
<g id="Layer_1_1_">
	<path fill="#7AB6CE" d="M14.542,50.5c-5.302,0-9.375,3.83-9.375,9.133v19.298V82.5h285v-2.998H116.821
		c-32.459,0-19.253-29.001-44.359-29.001H14.542z"/>
</g>
<g id="Isolation_Mode">
	<path fill="#F7F7F7" d="M9.377,0C4.074,0,0,3.83,0,9.133v19.298V32h130.001v-3h-18.345C79.199,29,92.402,0,67.297,0H9.377z"/>
	<path fill="#3F83AF" d="M29.709,104.166c-5.303,0-9.375,3.832-9.375,9.135v19.296v3.57h208v-3.002h-96.346
		c-32.457,0-19.252-28.999-44.359-28.999H29.709z"/>
</g>
</svg>
