<?xml version="1.0" encoding="utf-8"?>
<!-- Generator: Adobe Illustrator 16.0.0, SVG Export Plug-In . SVG Version: 6.00 Build 0)  -->
<!DOCTYPE svg PUBLIC "-//W3C//DTD SVG 1.1//EN" "http://www.w3.org/Graphics/SVG/1.1/DTD/svg11.dtd">
<svg version="1.1" xmlns="http://www.w3.org/2000/svg" xmlns:xlink="http://www.w3.org/1999/xlink" x="0px" y="0px"
	 width="284.999px" height="31.999px" viewBox="0 0 284.999 31.999" enable-background="new 0 0 284.999 31.999"
	 xml:space="preserve">
<g id="Layer_1">
	<path fill="#F1F2F2" d="M9.375,0.001C4.073,0.001,0,3.831,0,9.133v19.298v3.568h284.999v-2.998H111.655
		c-32.459,0-19.253-29-44.359-29H9.375z"/>
</g>
<g id="Isolation_Mode">
	<path fill="#06607C" d="M21.875-60.667c-5.303,0-9.377,3.83-9.377,9.132v19.298v3.569h130.001v-3h-18.345
		c-32.457,0-19.254-28.999-44.359-28.999H21.875z"/>
	<path fill="#3F83AF" d="M160.374-76.667c-5.301,0-9.375,3.832-9.375,9.134v19.297v3.57H359v-3.001h-96.346
		c-32.457,0-19.252-29-44.359-29H160.374z"/>
</g>
</svg>
