<?xml version="1.0" encoding="utf-8"?>
<!-- Generator: Adobe Illustrator 16.0.0, SVG Export Plug-In . SVG Version: 6.00 Build 0)  -->
<!DOCTYPE svg PUBLIC "-//W3C//DTD SVG 1.1//EN" "http://www.w3.org/Graphics/SVG/1.1/DTD/svg11.dtd">
<svg version="1.1" id="Layer_1" xmlns="http://www.w3.org/2000/svg" xmlns:xlink="http://www.w3.org/1999/xlink" x="0px" y="0px"
	 width="109.333px" height="28.75px" viewBox="0 0 109.333 28.75" enable-background="new 0 0 109.333 28.75" xml:space="preserve">
<g id="Layer_1_1_">
	<path fill="#7AB6CE" d="M9.375,0C4.073,0,0,3.831,0,9.133v19.298V32h285v-2.998H111.655C79.196,29.001,92.402,0,67.296,0H9.375z"/>
</g>
<g id="Isolation_Mode">
	<path fill="#06607C" d="M134.044-175.667c-5.303,0-9.377,3.83-9.377,9.133v19.298v3.568h130.001v-3h-18.345
		c-32.457,0-19.254-29-44.359-29H134.044z"/>
	<path fill="#3F83AF" d="M174.708-53c-5.303,0-9.375,3.832-9.375,9.134v19.297V-21h208v-3.002h-96.346
		C244.531-24.001,257.736-53,232.628-53H174.708z"/>
</g>
</svg>
