<?xml version="1.0" encoding="utf-8"?>
<!-- Generator: Adobe Illustrator 16.0.0, SVG Export Plug-In . SVG Version: 6.00 Build 0)  -->
<!DOCTYPE svg PUBLIC "-//W3C//DTD SVG 1.1//EN" "http://www.w3.org/Graphics/SVG/1.1/DTD/svg11.dtd">
<svg version="1.1" xmlns="http://www.w3.org/2000/svg" xmlns:xlink="http://www.w3.org/1999/xlink" x="0px" y="0px"
	 width="130.001px" height="31.999px" viewBox="0 0 130.001 31.999" enable-background="new 0 0 130.001 31.999"
	 xml:space="preserve">
<g id="Layer_1">
	<path fill="#F1F2F2" d="M7.708,75.334c-5.302,0-9.375,3.83-9.375,9.132v19.298v3.568h285v-2.998H109.989
		c-32.459,0-19.254-29-44.36-29H7.708z"/>
</g>
<g id="Isolation_Mode">
	<path fill="#F1F2F2" d="M9.377,0C4.074,0,0,3.83,0,9.132V28.43v3.569h130.001v-3h-18.345C79.199,28.999,92.402,0,67.297,0H9.377z"
		/>
	<path fill="#F1F2F2" d="M7.708,41.332c-5.301,0-9.375,3.832-9.375,9.134v19.298v3.57h208.001v-3.002h-96.346
		c-32.457,0-19.252-29-44.36-29H7.708z"/>
</g>
</svg>
