<?xml version="1.0" encoding="utf-8"?>
<!-- Generator: Adobe Illustrator 16.0.0, SVG Export Plug-In . SVG Version: 6.00 Build 0)  -->
<!DOCTYPE svg PUBLIC "-//W3C//DTD SVG 1.1//EN" "http://www.w3.org/Graphics/SVG/1.1/DTD/svg11.dtd">
<svg version="1.1" xmlns="http://www.w3.org/2000/svg" xmlns:xlink="http://www.w3.org/1999/xlink" x="0px" y="0px"
	 width="65.041px" height="22.459px" viewBox="0 0 65.041 22.459" enable-background="new 0 0 65.041 22.459" xml:space="preserve">
<g id="Layer_1">
</g>
<g id="Isolation_Mode">
	<polygon fill="#FFFFFF" points="42.231,8.657 42.231,11.557 42.805,11.557 42.805,12.285 41.288,12.285 41.288,8.657 	"/>
	<polygon fill="#FFFFFF" points="43.033,8.657 44.606,8.657 44.606,9.382 43.977,9.382 43.977,10.071 44.565,10.071 44.565,10.76 
		43.977,10.76 43.977,11.557 44.669,11.557 44.669,12.285 43.033,12.285 	"/>
	<path fill="#FFFFFF" d="M47.182,8.657l-0.479,3.628H45.27l-0.544-3.628h0.994c0.115,1,0.198,1.845,0.247,2.537
		c0.049-0.7,0.1-1.32,0.154-1.862l0.066-0.675H47.182z"/>
	<polygon fill="#FFFFFF" points="47.342,8.657 48.914,8.657 48.914,9.382 48.284,9.382 48.284,10.071 48.874,10.071 48.874,10.76 
		48.284,10.76 48.284,11.557 48.977,11.557 48.977,12.285 47.342,12.285 	"/>
	<polygon fill="#FFFFFF" points="50.191,8.657 50.191,11.557 50.766,11.557 50.766,12.285 49.248,12.285 49.248,8.657 	"/>
	<path fill="#FFFFFF" d="M61.227,8.657v2.424c0,0.275-0.01,0.468-0.027,0.58c-0.019,0.111-0.071,0.225-0.159,0.342
		c-0.089,0.117-0.204,0.207-0.35,0.267c-0.144,0.061-0.313,0.091-0.509,0.091c-0.217,0-0.408-0.036-0.573-0.108
		c-0.166-0.072-0.29-0.165-0.372-0.28c-0.083-0.115-0.131-0.235-0.146-0.364c-0.014-0.128-0.021-0.396-0.021-0.806V8.657h0.942v2.72
		c0,0.158,0.009,0.259,0.026,0.304c0.018,0.044,0.052,0.066,0.104,0.066c0.06,0,0.098-0.024,0.115-0.072
		c0.018-0.05,0.026-0.164,0.026-0.345V8.657H61.227z"/>
	<path fill="#FFFFFF" d="M61.591,8.657h0.95c0.256,0,0.454,0.02,0.593,0.06c0.138,0.04,0.241,0.099,0.311,0.176
		c0.07,0.075,0.117,0.168,0.142,0.276s0.037,0.276,0.037,0.503v0.316c0,0.23-0.024,0.399-0.071,0.506
		c-0.048,0.105-0.136,0.188-0.264,0.244c-0.127,0.057-0.295,0.085-0.501,0.085h-0.253v1.461h-0.943V8.657z M62.534,9.277v0.923
		c0.027,0.001,0.05,0.002,0.069,0.002c0.086,0,0.147-0.021,0.181-0.064c0.034-0.043,0.05-0.131,0.05-0.265V9.576
		c0-0.124-0.02-0.205-0.058-0.242C62.737,9.295,62.657,9.277,62.534,9.277"/>
	<path fill="#FFFFFF" d="M51.865,7.198h-2.913c0.15-1.176,0.573-2.122,1.267-2.837c0.968-0.996,2.184-1.495,3.648-1.495
		c1.308,0,2.402,0.415,3.287,1.246c0.885,0.83,1.328,1.814,1.328,2.956c0,0.707-0.194,1.354-0.58,1.939
		c-0.388,0.585-0.948,1.057-1.685,1.419c0.968,0.288,1.724,0.792,2.27,1.51c0.545,0.719,0.816,1.563,0.816,2.537
		c0,1.43-0.526,2.638-1.58,3.631c-1.054,0.992-2.397,1.488-4.028,1.488c-1.545,0-2.806-0.467-3.78-1.402
		c-0.974-0.935-1.509-2.205-1.602-3.813h2.999c0.13,0.821,0.417,1.434,0.86,1.834c0.445,0.4,1.005,0.601,1.685,0.601
		c0.707,0,1.294-0.229,1.76-0.683s0.698-1.009,0.698-1.667c0-0.722-0.313-1.331-0.942-1.829c-0.628-0.499-1.534-0.754-2.718-0.769
		v-2.6c0.729-0.057,1.272-0.171,1.63-0.34c0.357-0.17,0.636-0.403,0.835-0.699c0.197-0.296,0.297-0.609,0.297-0.942
		c0-0.434-0.152-0.792-0.455-1.077c-0.304-0.285-0.7-0.427-1.191-0.427c-0.433,0-0.826,0.131-1.18,0.395
		C52.236,6.44,51.995,6.781,51.865,7.198"/>
	<path fill="#FFFFFF" d="M53.809,0c-5.018,0-9.266,3.291-10.707,7.832h0.405c0.536-1.628,1.444-3.086,2.63-4.271
		c1.964-1.964,4.675-3.178,7.672-3.178c2.996,0,5.708,1.214,7.672,3.178s3.178,4.675,3.178,7.672c0,2.995-1.214,5.704-3.178,7.667
		c-1.964,1.965-4.676,3.18-7.672,3.18c-2.997,0-5.708-1.215-7.672-3.18c-1.428-1.427-2.455-3.249-2.912-5.286h-0.394
		c1.093,5.056,5.592,8.847,10.978,8.847c6.203,0,11.232-5.028,11.232-11.228C65.041,5.029,60.012,0,53.809,0"/>
	<path fill="#FFFFFF" d="M11.315,5.755H7.514L3.117,10.68V5.755H0v12.761h3.117v-5.724l4.518,5.724h3.97l-5.941-6.95L11.315,5.755z
		 M32.819,5.755l-2.53,5.358l-0.363,0.862l-0.36-0.847l-2.648-5.374h-3.501l0.182,0.335l4.717,8.708l-0.325,0.722
		c-0.15,0.318-0.319,0.492-0.472,0.558c-0.187,0.084-0.444,0.133-0.773,0.133c-0.354,0-0.682-0.078-1-0.238l-0.304-0.156
		l-0.373,2.367l0.177,0.068c0.687,0.267,1.374,0.404,2.058,0.404c0.469,0,0.901-0.063,1.297-0.191
		c0.403-0.131,0.775-0.357,1.113-0.671c0.341-0.316,0.636-0.732,0.89-1.237l5.359-10.802H32.819z M21.094,11.101
		c-0.74-0.406-1.682-0.599-2.819-0.599h-1.871V8.396h5.68V5.755h-8.798v12.761h4.989c0.844,0,1.584-0.111,2.22-0.337
		c0.626-0.225,1.14-0.523,1.532-0.901c0.384-0.369,0.668-0.782,0.848-1.231c0.175-0.441,0.265-0.892,0.265-1.344
		c0-0.718-0.155-1.397-0.468-2.03C22.353,12.026,21.817,11.499,21.094,11.101 M19.712,15.335c-0.104,0.205-0.243,0.346-0.439,0.445
		c-0.448,0.226-0.937,0.341-1.478,0.341h-1.392v-3.228h1.392c0.541,0,1.029,0.113,1.478,0.337c0.196,0.102,0.336,0.242,0.439,0.449
		c0.102,0.205,0.159,0.48,0.159,0.828C19.871,14.854,19.813,15.128,19.712,15.335"/>
	<rect x="37.593" y="5.536" fill="#FFFFFF" width="0.422" height="13.514"/>
</g>
</svg>
