<?xml version="1.0" encoding="utf-8"?>
<!-- Generator: Adobe Illustrator 16.0.0, SVG Export Plug-In . SVG Version: 6.00 Build 0)  -->
<!DOCTYPE svg PUBLIC "-//W3C//DTD SVG 1.1//EN" "http://www.w3.org/Graphics/SVG/1.1/DTD/svg11.dtd">
<svg version="1.1" xmlns="http://www.w3.org/2000/svg" xmlns:xlink="http://www.w3.org/1999/xlink" x="0px" y="0px"
	 width="50.519px" height="40px" viewBox="0 0 50.519 40" enable-background="new 0 0 50.519 40" xml:space="preserve">
<g id="Layer_1">
</g>
<g id="Isolation_Mode">
	<path fill="#FFFFFF" d="M10.321,32.408l0.35-0.975c0.333-0.92,1.192-1.329,2.024-1.029c0.824,0.295,1.236,1.161,0.904,2.082
		l-0.349,0.975L10.321,32.408z M13.4,32.414c0.293-0.814-0.079-1.531-0.785-1.785c-0.695-0.249-1.449,0.061-1.742,0.876
		l-0.273,0.759l2.527,0.907L13.4,32.414z"/>
	<polygon fill="#FFFFFF" points="11.505,29.121 12.254,27.038 12.455,27.11 11.784,28.977 12.935,29.391 13.537,27.712 
		13.738,27.785 13.135,29.461 14.311,29.885 14.988,27.997 15.19,28.07 14.434,30.174 	"/>
	<polygon fill="#FFFFFF" points="12.42,26.58 12.507,26.337 15.613,26.16 13.332,24.041 13.415,23.812 15.9,26.159 15.832,26.352 	
		"/>
	<polygon fill="#FFFFFF" points="13.643,23.184 14.391,21.102 14.592,21.173 13.921,23.038 15.073,23.452 15.675,21.775 
		15.875,21.848 15.272,23.524 16.448,23.946 17.126,22.061 17.327,22.133 16.571,24.237 	"/>
	<polygon fill="#FFFFFF" points="14.651,20.379 14.729,20.162 17.458,21.143 18.076,19.422 18.275,19.495 17.581,21.432 	"/>
	<path fill="#FFFFFF" d="M16.944,18.604c-0.799-0.287-1.302-1.135-0.983-2.021c0.319-0.887,1.234-1.214,2.041-0.924
		c0.8,0.287,1.303,1.135,0.984,2.021S17.752,18.895,16.944,18.604 M17.922,15.885c-0.725-0.261-1.508,0.053-1.768,0.777
		c-0.259,0.723,0.139,1.453,0.872,1.716c0.723,0.26,1.506-0.053,1.767-0.778C19.053,16.878,18.654,16.147,17.922,15.885"/>
	<path fill="#FFFFFF" d="M16.804,14.401l0.382-1.062c0.231-0.644,0.722-0.969,1.295-0.763c0.615,0.221,0.741,0.867,0.521,1.477
		l-0.284,0.791l1.093,0.393l-0.078,0.218L16.804,14.401z M18.807,13.968c0.195-0.543,0.043-1.014-0.4-1.173
		c-0.465-0.167-0.836,0.106-1.026,0.632l-0.298,0.829l1.435,0.516L18.807,13.968z"/>
	<polygon fill="#FFFFFF" points="17.81,11.604 18.559,9.521 18.76,9.595 18.087,11.459 19.239,11.873 19.842,10.195 20.042,10.268 
		19.439,11.945 20.616,12.367 21.292,10.48 21.495,10.553 20.738,12.657 	"/>
	<path fill="#FFFFFF" d="M18.82,8.794l0.443-1.23c0.129-0.36,0.346-0.608,0.585-0.721c0.188-0.087,0.413-0.101,0.632-0.022
		c0.488,0.175,0.639,0.641,0.527,1.158l1.6-0.517l-0.1,0.276l-1.548,0.497l-0.345,0.958l1.212,0.436L21.75,9.847L18.82,8.794z
		 M20.772,8.135c0.176-0.49,0.06-0.942-0.37-1.097c-0.395-0.142-0.752,0.079-0.943,0.61l-0.36,1l1.319,0.474L20.772,8.135z"/>
	<path fill="#FFFFFF" d="M22.036,16.527l0.35-0.975c0.332-0.921,1.192-1.329,2.025-1.03c0.823,0.296,1.235,1.162,0.903,2.083
		l-0.349,0.974L22.036,16.527z M25.115,16.532c0.293-0.815-0.078-1.53-0.785-1.784c-0.695-0.25-1.449,0.061-1.742,0.876
		l-0.272,0.757l2.526,0.908L25.115,16.532z"/>
	<path fill="#FFFFFF" d="M23.526,12.32l0.075-0.209l3.44-0.304l-0.086,0.239l-0.955,0.077l-0.622,1.729l0.687,0.666l-0.082,0.227
		L23.526,12.32z M25.771,12.145L23.8,12.307l1.416,1.382L25.771,12.145z"/>
	<polygon fill="#FFFFFF" points="26.283,10.28 24.062,10.899 24.16,10.628 26.128,10.097 24.95,8.431 25.044,8.171 26.357,10.061 
		27.519,10.479 27.441,10.697 	"/>
	<path fill="#FFFFFF" d="M27.637,8.819l-0.112-0.201c0.413-0.215,0.657-0.463,0.813-0.893c0.156-0.44,0.02-0.83-0.323-0.953
		c-0.312-0.112-0.549-0.013-0.922,0.604c-0.394,0.652-0.736,0.85-1.187,0.689c-0.434-0.157-0.626-0.675-0.431-1.218
		c0.153-0.427,0.371-0.665,0.716-0.877l0.121,0.2c-0.336,0.19-0.528,0.433-0.645,0.755c-0.154,0.431-0.009,0.804,0.305,0.917
		c0.309,0.111,0.555,0.02,0.944-0.623c0.384-0.628,0.729-0.825,1.162-0.669c0.476,0.17,0.654,0.692,0.451,1.257
		C28.36,8.277,28.075,8.581,27.637,8.819"/>
	<polygon fill="#FFFFFF" points="28.616,28.484 28.759,28.484 28.759,29.821 29.985,28.484 30.179,28.484 29.339,29.383 
		30.216,30.52 30.028,30.52 29.238,29.49 28.759,30.002 28.759,30.52 28.616,30.52 	"/>
	<polygon fill="#FFFFFF" points="31.097,29.715 30.271,28.484 30.45,28.484 31.171,29.577 31.894,28.484 32.064,28.484 
		31.241,29.712 31.241,30.52 31.097,30.52 	"/>
	<path fill="#FFFFFF" d="M32.354,28.456h0.168v0.194h-0.168V28.456z M32.371,29.037h0.135v1.481h-0.135V29.037z"/>
	<polygon fill="#FFFFFF" points="32.9,28.484 33.061,28.484 33.813,30.356 34.568,28.484 34.72,28.484 33.874,30.533 33.747,30.533 
			"/>
	<path fill="#FFFFFF" d="M28.465,33.178l0.642-0.556c0.238-0.209,0.332-0.319,0.332-0.487c0-0.172-0.107-0.266-0.259-0.266
		c-0.149,0-0.25,0.088-0.393,0.274l-0.298-0.254c0.19-0.273,0.375-0.42,0.718-0.42c0.399,0,0.661,0.247,0.661,0.633
		c0,0.34-0.163,0.508-0.504,0.788l-0.313,0.255h0.838v0.386h-1.424V33.178z"/>
	<path fill="#FFFFFF" d="M30.19,32.515c0-0.59,0.346-1.052,0.857-1.052c0.508,0,0.854,0.456,0.854,1.052
		c0,0.59-0.346,1.052-0.858,1.052C30.528,33.566,30.19,33.111,30.19,32.515 M31.465,32.515c0-0.369-0.17-0.647-0.422-0.647
		c-0.254,0-0.418,0.27-0.418,0.647c0,0.372,0.168,0.648,0.423,0.648S31.465,32.89,31.465,32.515"/>
	<polygon fill="#FFFFFF" points="32.522,31.936 32.188,32.024 32.1,31.658 32.651,31.483 32.94,31.483 32.94,33.531 32.522,33.531 	
		"/>
	<path fill="#FFFFFF" d="M33.391,33.325l0.224-0.34c0.14,0.12,0.256,0.174,0.42,0.174c0.235,0,0.361-0.188,0.39-0.461
		c-0.095,0.084-0.222,0.14-0.39,0.14c-0.418,0-0.688-0.244-0.688-0.662c0-0.411,0.299-0.713,0.732-0.713
		c0.259,0,0.412,0.067,0.556,0.222c0.138,0.145,0.229,0.366,0.229,0.771c0,0.66-0.295,1.11-0.842,1.11
		C33.743,33.566,33.553,33.469,33.391,33.325 M34.432,32.157c0-0.18-0.127-0.311-0.338-0.311c-0.209,0-0.326,0.128-0.326,0.313
		c0,0.182,0.126,0.305,0.334,0.305C34.311,32.465,34.432,32.338,34.432,32.157"/>
	<path fill="#FFFFFF" d="M19.044,3l-1.405,3.881C15.465,5.755,12.902,5,10.045,5H0v29h8.354l-1.018,3h0.393L19.436,3H19.044z
		 M9.136,31H2V8h8.045c2.645,0,4.949,0.247,6.857,1.283L9.136,31z M26.195,0L11.906,40h0.393L26.588,0H26.195z M35.547,5h-4.673
		l0.781-2h-0.392L19.556,37h0.392L25,19.994V34h2v-2.777v-1.481V13.677L30.092,8h5.455c7.849,0,12.798,4.819,12.798,11.5
		c0,6.802-4.949,11.5-12.798,11.5H35v3h0.547c8.854,0,14.972-6.57,14.972-14.5C50.519,11.491,44.401,5,35.547,5"/>
</g>
</svg>
