<?xml version="1.0" encoding="utf-8"?>
<!-- Generator: Adobe Illustrator 16.0.0, SVG Export Plug-In . SVG Version: 6.00 Build 0)  -->
<!DOCTYPE svg PUBLIC "-//W3C//DTD SVG 1.1//EN" "http://www.w3.org/Graphics/SVG/1.1/DTD/svg11.dtd">
<svg version="1.1" id="Layer_1" xmlns="http://www.w3.org/2000/svg" xmlns:xlink="http://www.w3.org/1999/xlink" x="0px" y="0px"
	 width="109.333px" height="28.75px" viewBox="0 0 109.333 28.75" enable-background="new 0 0 109.333 28.75" xml:space="preserve">
<g id="Layer_1_1_">
	<path fill="#7AB6CE" d="M11.708,42.833c-5.302,0-9.375,3.83-9.375,9.133v19.298v3.568h285v-2.998H113.988
		c-32.459,0-19.253-29.001-44.359-29.001H11.708z"/>
</g>
<g id="Isolation_Mode">
	<path fill="#06607C" d="M-31.288-122.667c-5.303,0-9.377,3.83-9.377,9.133v19.298v3.568H89.336v-3H70.992
		c-32.457,0-19.254-29-44.359-29H-31.288z"/>
	<path fill="#3F83AF" d="M9.376,0C4.074,0,0.001,3.832,0.001,9.134V28.43V32h208v-3.002h-96.346C79.199,28.999,92.404,0,67.296,0
		H9.376z"/>
</g>
</svg>
